<svg xmlns="http://www.w3.org/2000/svg" width="22" height="22" viewBox="0 0 22 22">
  <!-- radiation trefoil, phosphor green -->
  <g fill="#ffb020">
    <circle cx="11" cy="11" r="2.3"/>
    <path d="M6.25,2.77 A9.5,9.5 0 0 1 15.75,2.77 L13.0,7.54 A4,4 0 0 0 9.0,7.54 Z"/>
    <path d="M6.25,2.77 A9.5,9.5 0 0 1 15.75,2.77 L13.0,7.54 A4,4 0 0 0 9.0,7.54 Z" transform="rotate(120 11 11)"/>
    <path d="M6.25,2.77 A9.5,9.5 0 0 1 15.75,2.77 L13.0,7.54 A4,4 0 0 0 9.0,7.54 Z" transform="rotate(240 11 11)"/>
  </g>
</svg>
